<?xml version="1.0" encoding="utf-8"?>
<!-- Generator: Adobe Illustrator 22.0.0, SVG Export Plug-In . SVG Version: 6.00 Build 0)  -->
<svg version="1.1" id="Layer_1" xmlns="http://www.w3.org/2000/svg" xmlns:xlink="http://www.w3.org/1999/xlink" x="0px" y="0px"
	 viewBox="0 0 500 500" style="enable-background:new 0 0 500 500;" xml:space="preserve">
<style type="text/css">
	.st0{fill:#9B7E5B;}
	.st1{fill:none;stroke:#9B7E5B;stroke-width:6;stroke-linecap:round;stroke-linejoin:round;stroke-miterlimit:10;}
</style>
<g>
	<path class="st0" d="M259.4,125.7c2.1,0,4.1,0.8,5.7,2.3l104.7,104.7c3.5,3.5,2.2,7.6,1.7,8.7c-0.5,1.2-2.4,4.9-7.4,4.9l-209.6,0.1
		c-5,0-6.9-3.8-7.4-4.9c-0.5-1.2-1.8-5.2,1.7-8.7L253.7,128C255.2,126.5,257.2,125.7,259.4,125.7 M259.4,119.7
		c-3.6,0-7.2,1.4-9.9,4.1L144.6,228.7c-8.8,8.8-2.6,23.9,9.9,23.9c0,0,0,0,0,0l209.6-0.1c12.5,0,18.7-15.1,9.9-23.9L269.3,123.8
		C266.5,121.1,262.9,119.7,259.4,119.7L259.4,119.7z"/>
</g>
<polyline class="st1" points="174.8,252.6 174.8,380.3 343.8,380.3 343.8,250.5 "/>
<polyline class="st1" points="244.2,377.1 244.2,321.5 274.4,321.5 274.4,377.1 "/>
<path class="st1" d="M310.8,169.1V154c0-2,1.6-3.6,3.6-3.6h25.9c2,0,3.6,1.6,3.6,3.6v48"/>
</svg>
